<svg class="diagram-root" style="background: #f5f6f6" xmlns="http://www.w3.org/2000/svg" xmlns:xlink="http://www.w3.org/1999/xlink"><style>.diagram-root { font-family: "Helvetica Neue", sans-serif; font-size: 12px; } .t { overflow: visible; } .t-bg { y: 40; fill: #fff;   } .th { fill: #005aa0;   } .tht { fill: #fff; font-size: 14px;  } .tf { fill: #323c46; overflow: visible; } .tf.pk { fill: #005aa0; font-weight: bold; } .tf.fk { font-weight: bold; } .ty { fill: #adb1b5; font-weight: normal; text-anchor: end; } .r { fill: transparent; stroke: #c3c3c3; stroke-width: 1; } .l { stroke: 1; } .i { fill: #c2c7ce; stroke: #c2c7ce; } .i.ix { fill: #afb3b6; stroke: #000; } .fa { fill: transparent; overflow: visible; } .fa .bg.hover { fill: #f7f7f7; } .c { cy: 12; r: 4; stroke: #d2d2dc; fill: #d2d2dc; } .hr { fill: transparent; stroke: #323c46; stroke-opacity: 0.035; stroke-width: 13; } .dc { stroke: #fa5a3c; fill: #fa5a3c; } .x { stroke: white; stroke-width: 1; } .hl .th { fill: #1b9bff; } .hl .tht {  } .fhl .bg { fill: #e7f4ff; } .fhls .bg {  } .r.hl { stroke: #1b9bff; } .dim { opacity: 0.25; }</style><g class="drawing-wrapper" transform="translate(92.86000000000001, -23.864468864468826) scale(1,1)"><g class="rs"><path d="M -70.86 320.61 m -1, 0 a 1,1 0 1,0 2,0 a 1,1 0 1,0 -2,0 M -70.86 320.61 m -0.5, 0 a 0.5,0.5 0 1,0 1,0 a 0.5,0.5 0 1,0 -1,0  M-70.86 320.61 L-70.86 320.61 -82.86 320.61 M -70.86 326.61 m -1, 0 a 1,1 0 1,0 2,0 a 1,1 0 1,0 -2,0 M -70.86 326.61 m -0.5, 0 a 0.5,0.5 0 1,0 1,0 a 0.5,0.5 0 1,0 -1,0  M-70.86 326.61 L-70.86 326.61 -77.86 320.61 -70.86 314.61 M -70.86 314.61 m -1, 0 a 1,1 0 1,0 2,0 a 1,1 0 1,0 -2,0 M -70.86 314.61 m -0.5, 0 a 0.5,0.5 0 1,0 1,0 a 0.5,0.5 0 1,0 -1,0  M-82.86 320.61 C -132.86 320.61, -135.524 623.45, -78.42 623.45 M -66.42 623.45 m -1, 0 a 1,1 0 1,0 2,0 a 1,1 0 1,0 -2,0 M -66.42 623.45 m -0.5, 0 a 0.5,0.5 0 1,0 1,0 a 0.5,0.5 0 1,0 -1,0  M-66.42 623.45 L-66.42 623.45 -78.42 623.45 M-72.42 629.45 L-72.42 629.45 -72.42 617.45" id="h797182719" class="r"></path><path d="M 473.6285714285713 196.22714285714306 m -1, 0 a 1,1 0 1,0 2,0 a 1,1 0 1,0 -2,0 M 473.6285714285713 196.22714285714306 m -0.5, 0 a 0.5,0.5 0 1,0 1,0 a 0.5,0.5 0 1,0 -1,0  M473.6285714285713 196.22714285714306 L473.6285714285713 196.22714285714306 461.6285714285713 196.22714285714306 M 473.6285714285713 202.22714285714306 m -1, 0 a 1,1 0 1,0 2,0 a 1,1 0 1,0 -2,0 M 473.6285714285713 202.22714285714306 m -0.5, 0 a 0.5,0.5 0 1,0 1,0 a 0.5,0.5 0 1,0 -1,0  M473.6285714285713 202.22714285714306 L473.6285714285713 202.22714285714306 466.6285714285713 196.22714285714306 473.6285714285713 190.22714285714306 M 473.6285714285713 190.22714285714306 m -1, 0 a 1,1 0 1,0 2,0 a 1,1 0 1,0 -2,0 M 473.6285714285713 190.22714285714306 m -0.5, 0 a 0.5,0.5 0 1,0 1,0 a 0.5,0.5 0 1,0 -1,0  M461.6285714285713 196.22714285714306 Q 377.35 196.22714285714306, 293.08 195.92 T 124.54 195.61 M 112.54 195.61 m -1, 0 a 1,1 0 1,0 2,0 a 1,1 0 1,0 -2,0 M 112.54 195.61 m -0.5, 0 a 0.5,0.5 0 1,0 1,0 a 0.5,0.5 0 1,0 -1,0  M112.54 195.61 L112.54 195.61 124.54 195.61 M118.54 201.61 L118.54 201.61 118.54 189.61" id="h3118407767" class="r"></path><path d="M 297.6171428571428 433.18714285714276 m -1, 0 a 1,1 0 1,0 2,0 a 1,1 0 1,0 -2,0 M 297.6171428571428 433.18714285714276 m -0.5, 0 a 0.5,0.5 0 1,0 1,0 a 0.5,0.5 0 1,0 -1,0  M297.6171428571428 433.18714285714276 L297.6171428571428 433.18714285714276 285.6171428571428 433.18714285714276 M 297.6171428571428 439.18714285714276 m -1, 0 a 1,1 0 1,0 2,0 a 1,1 0 1,0 -2,0 M 297.6171428571428 439.18714285714276 m -0.5, 0 a 0.5,0.5 0 1,0 1,0 a 0.5,0.5 0 1,0 -1,0  M297.6171428571428 439.18714285714276 L297.6171428571428 439.18714285714276 290.6171428571428 433.18714285714276 297.6171428571428 427.18714285714276 M 297.6171428571428 427.18714285714276 m -1, 0 a 1,1 0 1,0 2,0 a 1,1 0 1,0 -2,0 M 297.6171428571428 427.18714285714276 m -0.5, 0 a 0.5,0.5 0 1,0 1,0 a 0.5,0.5 0 1,0 -1,0  M285.6171428571428 433.18714285714276 Q 246.46 433.18714285714276, 207.3 490.82 T 128.98000000000002 548.45 M 116.98 548.45 m -1, 0 a 1,1 0 1,0 2,0 a 1,1 0 1,0 -2,0 M 116.98 548.45 m -0.5, 0 a 0.5,0.5 0 1,0 1,0 a 0.5,0.5 0 1,0 -1,0  M116.98 548.45 L116.98 548.45 128.98000000000002 548.45 M122.98 554.45 L122.98 554.45 122.98 542.45" id="h1479439269" class="r"></path><path d="M 758.33 594.1642857142849 m -1, 0 a 1,1 0 1,0 2,0 a 1,1 0 1,0 -2,0 M 758.33 594.1642857142849 m -0.5, 0 a 0.5,0.5 0 1,0 1,0 a 0.5,0.5 0 1,0 -1,0  M758.33 594.1642857142849 L758.33 594.1642857142849 770.33 594.1642857142849 M 758.33 600.1642857142849 m -1, 0 a 1,1 0 1,0 2,0 a 1,1 0 1,0 -2,0 M 758.33 600.1642857142849 m -0.5, 0 a 0.5,0.5 0 1,0 1,0 a 0.5,0.5 0 1,0 -1,0  M758.33 600.1642857142849 L758.33 600.1642857142849 765.33 594.1642857142849 758.33 588.1642857142849 M 758.33 588.1642857142849 m -1, 0 a 1,1 0 1,0 2,0 a 1,1 0 1,0 -2,0 M 758.33 588.1642857142849 m -0.5, 0 a 0.5,0.5 0 1,0 1,0 a 0.5,0.5 0 1,0 -1,0  M770.33 594.1642857142849 C 820.33 594.1642857142849, 878.71 121.22714285714308, 673.03 121.22714285714308 M 661.03 121.22714285714308 m -1, 0 a 1,1 0 1,0 2,0 a 1,1 0 1,0 -2,0 M 661.03 121.22714285714308 m -0.5, 0 a 0.5,0.5 0 1,0 1,0 a 0.5,0.5 0 1,0 -1,0  M661.03 121.22714285714308 L661.03 121.22714285714308 673.03 121.22714285714308 M667.03 127.22714285714308 L667.03 127.22714285714308 667.03 115.22714285714308" id="h2025212712" class="r"></path><path d="M 574.9328571428571 619.1642857142849 m -1, 0 a 1,1 0 1,0 2,0 a 1,1 0 1,0 -2,0 M 574.9328571428571 619.1642857142849 m -0.5, 0 a 0.5,0.5 0 1,0 1,0 a 0.5,0.5 0 1,0 -1,0  M574.9328571428571 619.1642857142849 L574.9328571428571 619.1642857142849 562.9328571428571 619.1642857142849 M 574.9328571428571 625.1642857142849 m -1, 0 a 1,1 0 1,0 2,0 a 1,1 0 1,0 -2,0 M 574.9328571428571 625.1642857142849 m -0.5, 0 a 0.5,0.5 0 1,0 1,0 a 0.5,0.5 0 1,0 -1,0  M574.9328571428571 625.1642857142849 L574.9328571428571 625.1642857142849 567.9328571428571 619.1642857142849 574.9328571428571 613.1642857142849 M 574.9328571428571 613.1642857142849 m -1, 0 a 1,1 0 1,0 2,0 a 1,1 0 1,0 -2,0 M 574.9328571428571 613.1642857142849 m -0.5, 0 a 0.5,0.5 0 1,0 1,0 a 0.5,0.5 0 1,0 -1,0  M562.9328571428571 619.1642857142849 Q 454.45 619.1642857142849, 345.96 621.31 T 128.98000000000002 623.45 M 116.98 623.45 m -1, 0 a 1,1 0 1,0 2,0 a 1,1 0 1,0 -2,0 M 116.98 623.45 m -0.5, 0 a 0.5,0.5 0 1,0 1,0 a 0.5,0.5 0 1,0 -1,0  M116.98 623.45 L116.98 623.45 128.98000000000002 623.45 M122.98 629.45 L122.98 629.45 122.98 617.45" id="h757190341" class="r"></path></g><g class="hrs"></g><g class="ts"><svg width="183.4" height="175" x="-66.42" y="491.45" id="h1304670300" class="t"><rect height="40" width="183.4" class="th"></rect><text x="13" y="25" class="tht">Customer</text><rect height="135" width="183.4" class="t-bg"></rect><text x="13" y="61" class="tf pk">CustomerId<tspan x="170.4" class="ty">int</tspan></text><path d="M7,14A2,2 0 0,1 5,12A2,2 0 0,1 7,10A2,2 0 0,1 9,12A2,2 0 0,1 7,14M12.65,10C11.83,7.67 9.61,6 7, 6A6, 6 0 0, 0 1, 12A6, 6 0 0, 0 7, 18C9.61, 18 11.83, 16.33 12.65, 14H17V18H21V14H23V10H12.65Z" class="i pk" transform="translate(137.726171875, 48) scale(0.65)"></path><text x="13" y="86" class="tf">Name<tspan x="170.4" class="ty">string</tspan></text><path d="M814.545 581.818v-23.273H535.273v-93.09h-46.546v93.09H209.455v139.637H256V605.09h232.727v93.09h46.546v-93.09H768v93.09h46.545V581.819zM674.91 465.455H349.091V139.636h325.818v325.819zM325.82 884.364H139.635V698.182h186.182v186.182z m279.272 0H418.909V698.182h186.182v186.182z m279.273 0H698.182V698.182h186.182v186.182zM395.636 418.909h232.728V186.182H395.636v232.727zM186.182 837.82h93.09v-93.092h-93.09v93.091z m279.273 0h93.09v-93.092h-93.09v93.091z m279.272 0h93.091v-93.092h-93.09v93.091z" class="i ix" transform="translate(126.05625, 75) scale(0.014)"></path><text x="13" y="111" class="tf">Password<tspan x="170.4" class="ty">varchar</tspan></text><text x="13" y="136" class="tf fk">CustomerLocation<tspan x="170.4" class="ty">varchar</tspan></text><text x="13" y="161" class="tf">CreatedAt<tspan x="170.4" class="ty">timestamp</tspan></text></svg><svg width="183.4" height="225" x="-70.86" y="138.61" id="h3266295352" class="t"><rect height="40" width="183.4" class="th"></rect><text x="13" y="25" class="tht">Places</text><rect height="185" width="183.4" class="t-bg"></rect><text x="13" y="61" class="tf pk">PlaceId<tspan x="170.4" class="ty">int</tspan></text><path d="M7,14A2,2 0 0,1 5,12A2,2 0 0,1 7,10A2,2 0 0,1 9,12A2,2 0 0,1 7,14M12.65,10C11.83,7.67 9.61,6 7, 6A6, 6 0 0, 0 1, 12A6, 6 0 0, 0 7, 18C9.61, 18 11.83, 16.33 12.65, 14H17V18H21V14H23V10H12.65Z" class="i pk" transform="translate(137.726171875, 48) scale(0.65)"></path><text x="13" y="86" class="tf">PlaceName<tspan x="170.4" class="ty">string</tspan></text><path d="M814.545 581.818v-23.273H535.273v-93.09h-46.546v93.09H209.455v139.637H256V605.09h232.727v93.09h46.546v-93.09H768v93.09h46.545V581.819zM674.91 465.455H349.091V139.636h325.818v325.819zM325.82 884.364H139.635V698.182h186.182v186.182z m279.272 0H418.909V698.182h186.182v186.182z m279.273 0H698.182V698.182h186.182v186.182zM395.636 418.909h232.728V186.182H395.636v232.727zM186.182 837.82h93.09v-93.092h-93.09v93.091z m279.273 0h93.09v-93.092h-93.09v93.091z m279.272 0h93.091v-93.092h-93.09v93.091z" class="i ix" transform="translate(126.05625, 75) scale(0.014)"></path><text x="13" y="111" class="tf">PlaceImg<tspan x="170.4" class="ty">varchar</tspan></text><text x="13" y="136" class="tf">Location<tspan x="170.4" class="ty">varchar</tspan></text><text x="13" y="161" class="tf">Duration<tspan x="170.4" class="ty">int</tspan></text><text x="13" y="186" class="tf fk">CustomerLocation<tspan x="170.4" class="ty">varchar</tspan></text><text x="13" y="211" class="tf">CreatedAt<tspan x="170.4" class="ty">timestamp</tspan></text></svg><svg width="187.4" height="275" x="473.6285714285713" y="64.22714285714308" id="h1594665684" class="t"><rect height="40" width="187.4" class="th"></rect><text x="13" y="25" class="tht">StayLocation</text><rect height="235" width="187.4" class="t-bg"></rect><text x="13" y="61" class="tf pk">StayLocationId<tspan x="174.4" class="ty">int</tspan></text><path d="M7,14A2,2 0 0,1 5,12A2,2 0 0,1 7,10A2,2 0 0,1 9,12A2,2 0 0,1 7,14M12.65,10C11.83,7.67 9.61,6 7, 6A6, 6 0 0, 0 1, 12A6, 6 0 0, 0 7, 18C9.61, 18 11.83, 16.33 12.65, 14H17V18H21V14H23V10H12.65Z" class="i pk" transform="translate(141.726171875, 48) scale(0.65)"></path><text x="13" y="86" class="tf">StayLocationImg<tspan x="174.4" class="ty">varchar</tspan></text><text x="13" y="111" class="tf">StayLocationName<tspan x="174.4" class="ty">varchar</tspan></text><text x="13" y="136" class="tf fk">PlaceId<tspan x="174.4" class="ty">int</tspan></text><text x="13" y="161" class="tf">PlaceType<tspan x="174.4" class="ty">Boolean</tspan></text><text x="13" y="186" class="tf">Price<tspan x="174.4" class="ty">int</tspan></text><text x="13" y="211" class="tf">Facilities<tspan x="174.4" class="ty">varchar</tspan></text><text x="13" y="236" class="tf">Ratings<tspan x="174.4" class="ty">int</tspan></text><text x="13" y="261" class="tf">Address<tspan x="174.4" class="ty">varchar</tspan></text></svg><svg width="187.4" height="200" x="297.6171428571428" y="376.18714285714276" id="h1534020264" class="t"><rect height="40" width="187.4" class="th"></rect><text x="13" y="25" class="tht">CustomerReview</text><rect height="160" width="187.4" class="t-bg"></rect><text x="13" y="61" class="tf fk">CustomerId<tspan x="174.4" class="ty">int</tspan></text><text x="13" y="86" class="tf">CustomerImg<tspan x="174.4" class="ty">varchar</tspan></text><text x="13" y="111" class="tf">Review<tspan x="174.4" class="ty">varchar</tspan></text><text x="13" y="136" class="tf">Ratings<tspan x="174.4" class="ty">int</tspan></text><text x="13" y="161" class="tf">StayLocationName<tspan x="174.4" class="ty">varchar</tspan></text><text x="13" y="186" class="tf">CreatedAt<tspan x="174.4" class="ty">timestamp</tspan></text></svg><svg width="183.4" height="125" x="574.9328571428571" y="512.1642857142849" id="h2146699458" class="t"><rect height="40" width="183.4" class="th"></rect><text x="13" y="25" class="tht">CustomerMap</text><rect height="85" width="183.4" class="t-bg"></rect><text x="13" y="61" class="tf pk">Mapid<tspan x="170.4" class="ty">int</tspan></text><path d="M7,14A2,2 0 0,1 5,12A2,2 0 0,1 7,10A2,2 0 0,1 9,12A2,2 0 0,1 7,14M12.65,10C11.83,7.67 9.61,6 7, 6A6, 6 0 0, 0 1, 12A6, 6 0 0, 0 7, 18C9.61, 18 11.83, 16.33 12.65, 14H17V18H21V14H23V10H12.65Z" class="i pk" transform="translate(137.726171875, 48) scale(0.65)"></path><text x="13" y="86" class="tf fk">StayLocationId<tspan x="170.4" class="ty">int</tspan></text><text x="13" y="111" class="tf fk">CustomerLocation<tspan x="170.4" class="ty">varchar</tspan></text></svg><svg width="166.05" height="100" x="887.362637362638" y="53.864468864468826" id="h406144718" class="t"><rect height="40" width="166.05" class="th"></rect><text x="13" y="25" class="tht">Destinations</text><rect height="60" width="166.05" class="t-bg"></rect><text x="13" y="61" class="tf pk">DestinationId<tspan x="153.05" class="ty">int</tspan></text><path d="M7,14A2,2 0 0,1 5,12A2,2 0 0,1 7,10A2,2 0 0,1 9,12A2,2 0 0,1 7,14M12.65,10C11.83,7.67 9.61,6 7, 6A6, 6 0 0, 0 1, 12A6, 6 0 0, 0 7, 18C9.61, 18 11.83, 16.33 12.65, 14H17V18H21V14H23V10H12.65Z" class="i pk" transform="translate(120.37617187500001, 48) scale(0.65)"></path><text x="13" y="86" class="tf">DestinationImg<tspan x="153.05" class="ty">varchar</tspan></text></svg><svg width="142.7" height="125" x="886.4252380952379" y="526.6599999999992" id="h2376055071" class="t"><rect height="40" width="142.7" class="th"></rect><text x="13" y="25" class="tht">Hosts</text><rect height="85" width="142.7" class="t-bg"></rect><text x="13" y="61" class="tf pk">HostID<tspan x="129.7" class="ty">int</tspan></text><path d="M7,14A2,2 0 0,1 5,12A2,2 0 0,1 7,10A2,2 0 0,1 9,12A2,2 0 0,1 7,14M12.65,10C11.83,7.67 9.61,6 7, 6A6, 6 0 0, 0 1, 12A6, 6 0 0, 0 7, 18C9.61, 18 11.83, 16.33 12.65, 14H17V18H21V14H23V10H12.65Z" class="i pk" transform="translate(97.02617187499999, 48) scale(0.65)"></path><text x="13" y="86" class="tf">HostName<tspan x="129.7" class="ty">varchar</tspan></text><text x="13" y="111" class="tf">HostImg<tspan x="129.7" class="ty">varchar</tspan></text></svg><svg width="212.75" height="125" x="883.991428571429" y="359.46285714285733" id="h371154457" class="t"><rect height="40" width="212.75" class="th"></rect><text x="13" y="25" class="tht">OnlineExperience</text><rect height="85" width="212.75" class="t-bg"></rect><text x="13" y="61" class="tf pk">OnlineExperienceId<tspan x="199.75" class="ty">int</tspan></text><path d="M7,14A2,2 0 0,1 5,12A2,2 0 0,1 7,10A2,2 0 0,1 9,12A2,2 0 0,1 7,14M12.65,10C11.83,7.67 9.61,6 7, 6A6, 6 0 0, 0 1, 12A6, 6 0 0, 0 7, 18C9.61, 18 11.83, 16.33 12.65, 14H17V18H21V14H23V10H12.65Z" class="i pk" transform="translate(167.076171875, 48) scale(0.65)"></path><text x="13" y="86" class="tf">OnlineExperienceName<tspan x="199.75" class="ty">varchar</tspan></text><text x="13" y="111" class="tf">OnlineExperienceImg<tspan x="199.75" class="ty">varchar</tspan></text></svg><svg width="168.05" height="125" x="888.4953968253975" y="194.7595238095239" id="h1036863983" class="t"><rect height="40" width="168.05" class="th"></rect><text x="13" y="25" class="tht">StayType</text><rect height="85" width="168.05" class="t-bg"></rect><text x="13" y="61" class="tf pk">StayTypeId<tspan x="155.05" class="ty">int</tspan></text><path d="M7,14A2,2 0 0,1 5,12A2,2 0 0,1 7,10A2,2 0 0,1 9,12A2,2 0 0,1 7,14M12.65,10C11.83,7.67 9.61,6 7, 6A6, 6 0 0, 0 1, 12A6, 6 0 0, 0 7, 18C9.61, 18 11.83, 16.33 12.65, 14H17V18H21V14H23V10H12.65Z" class="i pk" transform="translate(122.37617187500001, 48) scale(0.65)"></path><text x="13" y="86" class="tf">StayTypeName<tspan x="155.05" class="ty">varchar</tspan></text><text x="13" y="111" class="tf">StayTypeImg<tspan x="155.05" class="ty">varchar</tspan></text></svg></g></g><text class="qdbd-link" x="10" y="20">www.quickdatabasediagrams.com</text></svg>