<?xml version="1.0" standalone="no"?>
<!DOCTYPE svg PUBLIC "-//W3C//DTD SVG 20010904//EN"
 "http://www.w3.org/TR/2001/REC-SVG-20010904/DTD/svg10.dtd">
<svg version="1.0" xmlns="http://www.w3.org/2000/svg"
 width="224.000000pt" height="224.000000pt" viewBox="0 0 224.000000 224.000000"
 preserveAspectRatio="xMidYMid meet">
<metadata>
Created by potrace 1.11, written by Peter Selinger 2001-2013
</metadata>
<g transform="translate(0.000000,224.000000) scale(0.100000,-0.100000)"
fill="#000000" stroke="none">
<path d="M270 1434 c-22 -19 -64 -93 -137 -242 -91 -184 -107 -223 -107 -264
0 -60 24 -95 87 -126 45 -23 48 -23 99 -8 29 9 71 31 93 50 l40 34 43 -39 c72
-63 165 -69 223 -13 35 33 53 85 46 130 -3 18 -54 131 -113 250 -117 235 -132
254 -206 254 -25 0 -46 -8 -68 -26z m106 -26 c21 -10 48 -57 132 -225 121
-245 128 -276 73 -325 -51 -46 -112 -38 -177 24 l-32 30 34 49 c32 48 54 105
54 142 0 27 -27 74 -52 91 -45 32 -143 12 -168 -33 -27 -51 -5 -142 52 -224
l20 -28 -22 -24 c-31 -33 -81 -55 -125 -55 -27 0 -44 8 -67 30 -46 46 -37 82
75 312 117 242 137 266 203 236z m13 -254 c20 -15 23 -23 19 -64 -3 -27 -17
-68 -32 -95 -26 -44 -29 -46 -46 -30 -27 24 -60 99 -60 135 0 60 67 90 119 54z"/>
<path d="M1106 1324 c-19 -18 -20 -28 -6 -55 19 -35 80 -19 80 21 0 19 -30 50
-48 50 -6 0 -18 -7 -26 -16z"/>
<path d="M1390 1150 l0 -191 43 1 c23 0 58 -2 78 -6 121 -21 192 142 100 230
-33 31 -96 45 -129 27 -20 -11 -21 -9 -24 56 l-3 68 -32 3 -33 3 0 -191z m175
-15 c43 -42 24 -107 -34 -120 -52 -11 -71 8 -71 70 0 41 4 56 18 64 29 17 62
12 87 -14z"/>
<path d="M1950 1150 l0 -192 38 3 c20 1 54 -2 75 -6 126 -25 204 137 108 229
-33 31 -96 45 -129 27 -20 -11 -21 -9 -24 56 l-3 68 -32 3 -33 3 0 -191z m174
-11 c65 -51 1 -149 -78 -119 -24 9 -26 15 -26 64 0 42 4 57 18 65 27 16 57 13
86 -10z"/>
<path d="M864 1201 c-46 -28 -64 -59 -64 -111 0 -85 65 -148 139 -136 20 3 55
6 79 6 l42 -1 0 126 0 126 -42 -1 c-24 0 -61 2 -83 5 -30 4 -48 1 -71 -14z
m112 -55 c17 -12 19 -22 14 -67 -4 -46 -9 -55 -30 -62 -34 -12 -77 6 -92 38
-29 65 50 132 108 91z"/>
<path d="M1301 1211 c-7 -5 -31 -6 -52 -4 l-39 6 0 -127 0 -126 29 0 29 0 4
90 c3 98 10 110 61 110 23 0 27 4 27 30 0 24 -4 30 -22 30 -13 0 -29 -4 -37
-9z"/>
<path d="M1771 1211 c-7 -5 -31 -6 -52 -4 l-39 6 0 -127 0 -126 35 0 34 0 3
92 c3 91 3 93 31 102 51 18 62 1 65 -103 l3 -91 34 0 35 0 0 90 c0 49 -5 101
-12 115 -20 45 -98 71 -137 46z"/>
<path d="M1100 1085 l0 -125 35 0 35 0 0 125 0 125 -35 0 -35 0 0 -125z"/>
</g>
</svg>
